<?xml version="1.0" encoding="UTF-8"?>
<svg id="Layer_1" data-name="Layer 1" xmlns="http://www.w3.org/2000/svg" viewBox="0 0 744.9 137.12">
  <path d="M0,50.65c0-9.22,2.28-17.72,6.84-25.5,4.56-7.78,10.73-13.92,18.52-18.41C33.14,2.25,41.62,0,50.79,0s17.63,2.25,25.39,6.74c7.76,4.49,13.91,10.63,18.45,18.41,4.54,7.78,6.81,16.28,6.81,25.5,0,10.96-3.41,20.93-10.23,29.91l11.22,11.36c1.41,1.32,2.12,3.01,2.12,5.08s-.71,3.88-2.12,5.43c-1.41,1.41-3.22,2.11-5.43,2.11s-3.81-.7-5.08-2.11l-11.57-11.14c-8.56,6.68-18.41,10.02-29.55,10.02-6.87,0-13.43-1.34-19.68-4.02-6.25-2.68-11.66-6.28-16.22-10.79-4.56-4.51-8.18-9.9-10.86-16.15-2.68-6.25-4.02-12.81-4.02-19.68ZM86.13,50.65c0-6.49-1.58-12.47-4.73-17.95-3.15-5.48-7.44-9.8-12.87-12.98-5.43-3.17-11.35-4.76-17.74-4.76-4.84,0-9.48.94-13.9,2.82-4.42,1.88-8.22,4.41-11.39,7.58-3.17,3.17-5.7,6.97-7.58,11.39-1.88,4.42-2.82,9.05-2.82,13.9,0,6.4,1.59,12.32,4.76,17.78,3.17,5.46,7.5,9.78,12.98,12.98,5.48,3.2,11.46,4.8,17.95,4.8,9.73,0,18.06-3.48,24.97-10.44,6.91-6.96,10.37-15.33,10.37-25.11Z" fill="#262626"/>
  <path d="M129.34,93.74V7.41c0-2.02.74-3.76,2.22-5.22,1.48-1.46,3.26-2.19,5.33-2.19h35.06c4.42,0,8.66.87,12.73,2.61,4.07,1.74,7.58,4.09,10.55,7.05,2.96,2.96,5.33,6.49,7.09,10.58,1.76,4.09,2.65,8.37,2.65,12.84,0,6.07-1.55,11.67-4.66,16.82s-7.24,9.13-12.41,11.96l16.29,28.07c.99,1.79,1.19,3.67.6,5.64-.59,1.98-1.78,3.55-3.56,4.73-1.18.66-2.4.99-3.67.99s-2.57-.34-3.77-1.02c-1.2-.68-2.13-1.61-2.79-2.79l-18.06-31.67c-.8.33-1.9.49-3.32.49h-25.18v27.44c0,2.07-.75,3.84-2.26,5.33-1.51,1.48-3.32,2.22-5.43,2.22s-3.76-.74-5.22-2.22c-1.46-1.48-2.19-3.26-2.19-5.33ZM171.95,14.95h-27.51v36.33h27.51c4.94,0,9.18-1.8,12.73-5.4,3.55-3.6,5.33-7.86,5.33-12.8s-1.78-9.19-5.33-12.77c-3.55-3.57-7.79-5.36-12.73-5.36Z" fill="#262626"/>
  <path d="M223.12,63.48c0-6.72,1.68-12.95,5.04-18.69,3.36-5.74,7.95-10.27,13.76-13.61,5.81-3.34,12.14-5.01,19.01-5.01,9.45,0,17.68,3.12,24.69,9.35,7.01,6.23,11.1,13.96,12.27,23.17,1.27,6.58-1.41,9.88-8.04,9.88h-51.99c.99,5.41,3.63,9.91,7.94,13.51,4.3,3.6,9.35,5.4,15.13,5.4,6.44,0,12.04-2.3,16.79-6.91,1.17-1.32,2.8-1.98,4.87-1.98s3.62.66,4.8,1.98c1.32,1.22,1.98,2.8,1.98,4.73s-.66,3.6-1.98,5.01c-3.43,3.43-7.44,6.13-12.03,8.08-4.58,1.95-9.39,2.93-14.42,2.93-6.91,0-13.26-1.68-19.04-5.04-5.78-3.36-10.36-7.94-13.72-13.72-3.36-5.78-5.04-12.13-5.04-19.05ZM283.78,58.69c-1.08-5.41-3.76-9.91-8.04-13.51-4.28-3.6-9.22-5.4-14.81-5.4s-10.77,1.8-15.1,5.4c-4.33,3.6-6.98,8.1-7.97,13.51h45.92Z" fill="#262626"/>
  <path d="M349.93,101.29c-6.87,0-13.18-1.68-18.94-5.04-5.76-3.36-10.31-7.94-13.65-13.72-3.34-5.78-5.01-12.13-5.01-19.05,0-5.08.99-9.93,2.96-14.57,1.97-4.63,4.63-8.63,7.97-11.99,3.34-3.36,7.34-6.03,11.99-8.01,4.66-1.98,9.55-2.96,14.67-2.96s9.93.99,14.57,2.96c4.63,1.97,8.63,4.64,11.99,8.01,3.36,3.36,6.03,7.36,8.01,11.99,1.98,4.63,2.96,9.49,2.96,14.57v30.9c0,1.83-.69,3.45-2.08,4.83-1.39,1.39-3.05,2.08-4.97,2.08-1.79,0-3.39-.71-4.8-2.12-1.41-1.41-2.12-3.01-2.12-4.8v-1.48c-6.77,5.6-14.63,8.39-23.56,8.39ZM325.94,63.48c0,6.68,2.33,12.34,6.98,17s10.32,6.98,17,6.98,12.06-2.34,16.72-7.02c4.66-4.68,6.98-10.33,6.98-16.96s-2.33-12.14-6.98-16.82c-4.66-4.68-10.23-7.02-16.72-7.02s-12.34,2.33-17,6.98c-4.66,4.66-6.98,10.28-6.98,16.86Z" fill="#262626"/>
  <path d="M441.75,101.29c-6.82,0-13.1-1.68-18.83-5.04-5.74-3.36-10.28-7.94-13.61-13.72-3.34-5.78-5.01-12.13-5.01-19.05s1.67-13.11,5.01-18.87c3.34-5.76,7.88-10.31,13.61-13.65,5.74-3.34,12.01-5.01,18.83-5.01,4.84,0,9.33.96,13.47,2.89,4.14,1.93,7.64,4.58,10.51,7.97V6.91c0-1.93.66-3.56,1.98-4.9,1.32-1.34,2.96-2.01,4.94-2.01s3.48.67,4.8,2.01c1.32,1.34,1.98,2.97,1.98,4.9v56.57c0,6.91-1.68,13.26-5.04,19.05-3.36,5.78-7.92,10.36-13.68,13.72-5.76,3.36-12.07,5.04-18.94,5.04ZM441.75,39.64c-6.49,0-12.06,2.33-16.72,6.98-4.66,4.66-6.98,10.28-6.98,16.86s2.33,12.29,6.98,16.96c4.66,4.68,10.23,7.02,16.72,7.02s12.34-2.33,17-6.98,6.98-10.32,6.98-17-2.34-12.2-7.02-16.86c-4.68-4.66-10.33-6.98-16.96-6.98Z" fill="#262626"/>
  <path d="M501.26,67.72v-34.99c0-1.93.66-3.54,1.98-4.83,1.32-1.29,2.96-1.94,4.94-1.94s3.56.66,4.9,1.98c1.34,1.32,2.01,2.92,2.01,4.8v34.99c0,5.41,1.92,10.03,5.75,13.86,3.83,3.83,8.43,5.75,13.79,5.75s10.17-1.9,14-5.71c3.83-3.81,5.75-8.44,5.75-13.9v-34.99c0-1.93.66-3.54,1.98-4.83,1.32-1.29,2.96-1.94,4.94-1.94s3.54.66,4.83,1.98c1.29,1.32,1.94,2.92,1.94,4.8v34.99c0,6.02-1.49,11.62-4.48,16.79-2.99,5.17-7.05,9.26-12.2,12.27-5.15,3.01-10.73,4.51-16.75,4.51-9.17,0-17.02-3.29-23.56-9.88-6.54-6.58-9.8-14.48-9.8-23.7ZM514.59,112.3c2.07,3.39,4.89,6.07,8.46,8.04,3.57,1.98,7.45,2.96,11.64,2.96s8.04-.99,11.57-2.96,6.39-4.66,8.61-8.04c1.5-2.16,3.48-3.25,5.93-3.25,1.13,0,2.28.33,3.46.99,1.69,1.18,2.75,2.67,3.17,4.48.42,1.81.14,3.54-.85,5.19-3.43,5.36-7.95,9.6-13.54,12.73-5.6,3.13-11.71,4.69-18.34,4.69s-12.65-1.56-18.2-4.69c-5.55-3.13-10.06-7.37-13.54-12.73-1.03-1.69-1.34-3.43-.92-5.22.42-1.79,1.43-3.27,3.03-4.44,1.18-.66,2.33-.99,3.46-.99,2.54,0,4.56,1.08,6.07,3.25Z" fill="#262626"/>
  <path d="M592.02,98.75c-1.69-1.69-2.54-3.69-2.54-6s.85-4.28,2.54-5.92c1.69-1.65,3.69-2.47,6-2.47s4.25.82,5.85,2.47c1.6,1.65,2.4,3.62,2.4,5.92s-.81,4.3-2.43,6c-1.62,1.69-3.56,2.54-5.82,2.54s-4.3-.85-6-2.54Z" fill="#262626"/>
  <path d="M630.44,11.36c0-2.21.76-4.1,2.29-5.68,1.53-1.57,3.4-2.36,5.61-2.36s4.25.79,5.85,2.36c1.6,1.58,2.4,3.47,2.4,5.68s-.8,4.26-2.4,5.85c-1.6,1.6-3.55,2.4-5.85,2.4s-4.08-.8-5.61-2.4c-1.53-1.6-2.29-3.55-2.29-5.85ZM631.64,32.87c0-1.88.67-3.5,2.01-4.87,1.34-1.36,2.9-2.05,4.69-2.05,2.02,0,3.71.67,5.08,2.01,1.36,1.34,2.05,2.97,2.05,4.9v61.51c0,1.83-.68,3.45-2.05,4.83-1.37,1.39-3.06,2.08-5.08,2.08-1.79,0-3.35-.69-4.69-2.08-1.34-1.39-2.01-3-2.01-4.83v-61.51Z" fill="#01a76c"/>
  <path d="M669.78,63.48c0-5.08.99-9.93,2.96-14.57,1.98-4.63,4.63-8.63,7.97-11.99,3.34-3.36,7.34-6.03,11.99-8.01,4.66-1.98,9.55-2.96,14.67-2.96s9.93.99,14.57,2.96c4.63,1.97,8.63,4.64,11.99,8.01,3.36,3.36,6.03,7.36,8.01,11.99,1.98,4.63,2.96,9.49,2.96,14.57,0,6.87-1.67,13.2-5.01,19.01-3.34,5.81-7.89,10.39-13.65,13.76-5.76,3.36-12.05,5.04-18.87,5.04s-13.18-1.68-18.94-5.04c-5.76-3.36-10.31-7.94-13.65-13.72-3.34-5.78-5.01-12.13-5.01-19.05ZM731.08,63.48c0-6.54-2.33-12.14-6.98-16.82-4.66-4.68-10.23-7.02-16.72-7.02s-12.29,2.33-16.96,6.98c-4.68,4.66-7.02,10.28-7.02,16.86s2.33,12.34,6.98,17c4.66,4.66,10.32,6.98,17,6.98s12.06-2.34,16.72-7.02c4.66-4.68,6.98-10.33,6.98-16.96Z" fill="#01a76c"/>
</svg>